# xmcd CD database file
#
# Track frame offsets:
#	182
#	27247
#	59290
#	94207
#	110662
#	142862
#	176160
#	195742
#
# Disc length: 2920 seconds
#
# Revision: 0
# Processed by: cddbd v1.5.1PL0 Copyright (c) Steve Scherf et al.
# Submitted via: CDex 1.51
#
DISCID=6d0b6608
DTITLE=Orquesta La Mulenze - Lo Mejor - Veneno
DYEAR=1992
DGENRE=Salsa
TTITLE0=No Hay Manera Filomena
TTITLE1=Al Pasar los Años
TTITLE2=Me Vineron a Decir
TTITLE3=El Profeta
TTITLE4=Yo Prometo
TTITLE5=Anoche Aprendí
TTITLE6=Es Imposible Volver
TTITLE7=Tormenta
EXTD=YEAR: 1992
EXTT0=
EXTT1=
EXTT2=
EXTT3=
EXTT4=
EXTT5=
EXTT6=
EXTT7=
PLAYORDER=
